<svg width="20" height="20" viewBox="0 0 20 20" fill="none" xmlns="http://www.w3.org/2000/svg">
<g clip-path="url(#clip0_1708_476)">
<path d="M13.1983 14.0165L14.1129 12.5324L15.7633 11.9695L15.9462 10.2361L17.1879 9.01359L16.5975 7.37273L17.1879 5.73184L15.9462 4.50938L15.7634 2.77594L14.1129 2.21305L13.1983 0.728945L11.4684 0.937812L9.99895 0L8.52946 0.937891L6.79962 0.729023L5.88505 2.21309L4.23458 2.77598L4.05172 4.50941L2.80997 5.73187L3.40036 7.37277L2.80997 9.01367L4.05169 10.2361L4.23454 11.9696L5.88501 12.5325L6.79958 14.0165L8.52946 13.8077L9.99895 14.7455L11.4684 13.8077L13.1983 14.0165ZM4.94313 7.37277C4.94313 4.585 7.21118 2.31695 9.99895 2.31695C12.7867 2.31695 15.0548 4.585 15.0548 7.37277C15.0548 10.1605 12.7867 12.4286 9.99895 12.4286C7.21118 12.4286 4.94313 10.1605 4.94313 7.37277Z" fill="#FAFAFA"/>
<path d="M10.0006 3.49023C7.85936 3.49023 6.11737 5.23223 6.11737 7.37344C6.11737 9.51465 7.85936 11.2566 10.0006 11.2566C12.1418 11.2566 13.8838 9.51465 13.8838 7.37344C13.8838 5.23223 12.1418 3.49023 10.0006 3.49023Z" fill="#FAFAFA"/>
<path d="M8.25316 15.0228L6.19535 15.2712L5.10812 13.5069L4.73851 13.3809L3.14426 18.3639L6.01437 18.2061L8.25988 20.0006L9.58129 15.8704L8.25316 15.0228Z" fill="#FAFAFA"/>
<path d="M14.8908 13.5069L13.8036 15.2712L11.7458 15.0228L10.4177 15.8704L11.7391 20.0006L13.9846 18.2061L16.8547 18.3639L15.2604 13.3809L14.8908 13.5069Z" fill="#FAFAFA"/>
</g>
<defs>
<clipPath id="clip0_1708_476">
<rect width="20" height="20" fill="white"/>
</clipPath>
</defs>
</svg>
