<svg width="20" height="20" viewBox="0 0 20 20" fill="none" xmlns="http://www.w3.org/2000/svg">
<path d="M9.99986 18.3327C9.0799 18.3282 8.33396 17.5859 8.32486 16.666H11.6582C11.66 16.8888 11.6175 17.1098 11.5332 17.316C11.3146 17.8177 10.868 18.1836 10.3332 18.2993H10.329H10.3165H10.3015H10.294C10.1972 18.3195 10.0987 18.3307 9.99986 18.3327ZM16.6665 15.8327H3.33319V14.166L4.99986 13.3327V8.74935C4.95596 7.57361 5.22147 6.40695 5.76986 5.36602C6.31572 4.40061 7.24877 3.71508 8.33319 3.48268V1.66602H11.6665V3.48268C13.8157 3.99435 14.9999 5.86435 14.9999 8.74935V13.3327L16.6665 14.166V15.8327Z" fill="#FAFAFA"/>
</svg>
