<svg width="24" height="24" viewBox="0 0 24 24" fill="none" xmlns="http://www.w3.org/2000/svg">
<g clip-path="url(#clip0_1709_523)">
<path d="M12 7.01367C10.1154 7.01367 8.58231 8.54681 8.58231 10.4314C8.58231 12.3159 10.1155 13.8491 12 13.8491C13.8845 13.8491 15.4177 12.3159 15.4177 10.4314C15.4177 8.54686 13.8846 7.01367 12 7.01367ZM12 12.3301C10.9529 12.3301 10.1013 11.4782 10.1013 10.4314C10.1013 9.38433 10.9529 8.5327 12 8.5327C13.0471 8.5327 13.8987 9.38433 13.8987 10.4314C13.8987 11.4785 13.0471 12.3301 12 12.3301Z" fill="#FAFAFA"/>
<path d="M12 12.3047C9.19417 12.3047 6.91141 14.5875 6.91141 17.3933V18.5325C6.91141 18.952 7.25139 19.2921 7.67092 19.2921C8.09041 19.2921 8.43044 18.9521 8.43044 18.5325V17.3933C8.43044 15.4249 10.0317 13.8237 12.0001 13.8237C13.9684 13.8237 15.5697 15.4252 15.5697 17.3933V18.5325C15.5697 18.952 15.9097 19.2921 16.3292 19.2921C16.7487 19.2921 17.0887 18.9521 17.0887 18.5325V17.3933C17.0886 14.5875 14.8059 12.3047 12 12.3047Z" fill="#FAFAFA"/>
<path d="M18.9114 4.70703C17.0269 4.70703 15.4937 6.24022 15.4937 8.12473C15.4937 10.0093 17.0269 11.5424 18.9114 11.5424C20.7962 11.5424 22.3291 10.0093 22.3291 8.12473C22.3291 6.24022 20.796 4.70703 18.9114 4.70703ZM18.9114 10.0235C17.8643 10.0235 17.0127 9.17183 17.0127 8.12473C17.0127 7.07764 17.8643 6.22602 18.9114 6.22602C19.9585 6.22602 20.8101 7.07764 20.8101 8.12473C20.8101 9.17183 19.9585 10.0235 18.9114 10.0235Z" fill="#FAFAFA"/>
<path d="M18.9114 10.002C16.5841 10.002 14.5532 11.5794 13.9735 13.8384C13.8692 14.2445 14.114 14.6584 14.52 14.7627C14.9263 14.8681 15.34 14.6225 15.4444 14.2162C15.8519 12.6291 17.2778 11.521 18.9115 11.521C20.8798 11.521 22.4811 13.1225 22.4811 15.0906V16.2299C22.4811 16.6494 22.821 16.9894 23.2406 16.9894C23.6601 16.9894 24.0001 16.6494 24 16.2299V15.0906C24 12.2848 21.7172 10.002 18.9114 10.002Z" fill="#FAFAFA"/>
<path d="M5.0886 4.70703C3.20404 4.70703 1.6709 6.24022 1.6709 8.12473C1.6709 10.0093 3.20409 11.5424 5.0886 11.5424C6.97316 11.5424 8.5063 10.0093 8.5063 8.12473C8.5063 6.24022 6.97316 4.70703 5.0886 4.70703ZM5.0886 10.0235C4.04151 10.0235 3.18988 9.17183 3.18988 8.12473C3.18988 7.07764 4.04151 6.22602 5.0886 6.22602C6.13569 6.22602 6.98732 7.07764 6.98732 8.12473C6.98732 9.17183 6.13569 10.0235 5.0886 10.0235Z" fill="#FAFAFA"/>
<path d="M10.0015 13.8092C9.42534 11.5651 7.40508 9.99805 5.08861 9.99805C2.28277 9.998 0 12.2808 0 15.0866V16.2259C0 16.6454 0.339984 16.9854 0.759515 16.9854C1.179 16.9854 1.51903 16.6454 1.51903 16.2259V15.0866C1.51903 13.1185 3.12028 11.517 5.08866 11.517C6.71142 11.517 8.12662 12.6147 8.53017 14.1869C8.63447 14.5929 9.04687 14.837 9.45473 14.7337C9.861 14.6294 10.1058 14.2153 10.0015 13.8092Z" fill="#FAFAFA"/>
</g>
<defs>
<clipPath id="clip0_1709_523">
<rect width="24" height="24" fill="white"/>
</clipPath>
</defs>
</svg>
