<svg width="20" height="20" viewBox="0 0 20 20" fill="none" xmlns="http://www.w3.org/2000/svg">
<path d="M10 18.3334C5.39767 18.3334 1.66671 14.6025 1.66671 10.0001C1.66671 5.39771 5.39767 1.66675 10 1.66675C14.6024 1.66675 18.3334 5.39771 18.3334 10.0001C18.3283 14.6004 14.6003 18.3284 10 18.3334ZM3.33337 10.1434C3.3728 13.8111 6.36763 16.758 10.0355 16.7384C13.7033 16.7186 16.6663 13.7397 16.6663 10.0717C16.6663 6.40384 13.7033 3.42489 10.0355 3.40508C6.36763 3.38546 3.3728 6.33238 3.33337 10.0001V10.1434ZM10.8334 14.1667H9.16671V10.8334H5.83337V9.16675H9.16671V5.83342H10.8334V9.16675H14.1667V10.8334H10.8334V14.1667Z" fill="#FAFAFA"/>
</svg>
