<svg width="16" height="17" viewBox="0 0 16 17" fill="none" xmlns="http://www.w3.org/2000/svg">
<path fill-rule="evenodd" clip-rule="evenodd" d="M9.28003 11.1614V12.6599H10.56C10.9135 12.6599 11.2 12.9465 11.2 13.2999V14.5799C11.2 14.9334 10.9135 15.2199 10.56 15.2199H5.44003C5.08657 15.2199 4.80003 14.9334 4.80003 14.5799V13.2999C4.80003 12.9465 5.08657 12.6599 5.44003 12.6599H6.72003V11.1614C5.22859 10.6343 4.16003 9.21188 4.16003 7.53992V2.41992H11.84V7.53992C11.84 9.21188 10.7715 10.6343 9.28003 11.1614Z" fill="#1FCD93"/>
<path fill-rule="evenodd" clip-rule="evenodd" d="M12.4801 3.06445V4.02445H13.4432V5.46445C13.4432 6.20213 13.0592 6.85012 12.4801 7.21942V8.2927C13.6064 7.84753 14.4032 6.74904 14.4032 5.46445V3.54445C14.4032 3.27936 14.1883 3.06445 13.9232 3.06445H12.4801ZM2.5601 4.02448H3.52314V3.06448H2.0801C1.815 3.06448 1.6001 3.27938 1.6001 3.54448V5.46448C1.6001 6.74906 2.39686 7.84755 3.52314 8.29272V7.21944C2.94411 6.85015 2.5601 6.20216 2.5601 5.46448V4.02448Z" fill="#1FCD93" fill-opacity="0.5"/>
</svg>
