<svg width="16" height="17" viewBox="0 0 16 17" fill="none" xmlns="http://www.w3.org/2000/svg">
<path fill-rule="evenodd" clip-rule="evenodd" d="M6.80854 2.59983L8.32064 3.69782L9.83274 2.59983C9.34797 2.48224 8.84159 2.41992 8.32064 2.41992C7.79969 2.41992 7.2933 2.48224 6.80854 2.59983ZM1.93677 8.55259C1.97231 7.63836 2.20018 6.77346 2.58107 5.99718L3.17702 7.54881L1.93677 8.55259ZM13.464 7.54881L14.0599 5.99718C14.4408 6.77346 14.6687 7.63836 14.7042 8.55259L13.464 7.54881ZM13.1799 12.9501C12.5961 13.6331 11.8707 14.1915 11.0491 14.5799L11.4251 13.0728L13.1799 12.9501ZM5.36396 14.4665L5.01628 13.0728L3.47398 12.965C4.00075 13.5775 4.64176 14.089 5.36396 14.4665ZM6.99229 10.6315L6.17177 8.10759L8.31991 6.54774L10.4681 8.10759L9.64753 10.6315H6.99229Z" fill="#1FCD93" fill-opacity="0.5"/>
<path fill-rule="evenodd" clip-rule="evenodd" d="M7.96637 4.32098L6.18212 3.02536C6.11416 2.97602 6.06882 2.90714 6.04818 2.83203C4.80659 3.30295 3.74955 4.1486 3.01532 5.23079C3.03613 5.25764 3.05341 5.28795 3.06622 5.32129L3.78163 7.18397L5.62279 7.63527L7.96637 5.9335V4.32098ZM8.67822 4.31811V5.93638L11.0212 7.63772L12.8576 7.1876L13.5744 5.32129C13.5872 5.28795 13.6045 5.25764 13.6253 5.23079C12.8911 4.1486 11.834 3.30295 10.5924 2.83203C10.5718 2.90714 10.5265 2.97602 10.4585 3.02536L8.67822 4.31811ZM11.1505 8.33809L12.8072 7.93201C12.8137 7.93813 12.8205 7.94404 12.8275 7.94973L14.6805 9.44939C14.6846 9.45273 14.6888 9.45595 14.693 9.45907C14.5902 10.4936 14.2409 11.4557 13.7047 12.2859C13.6457 12.2521 13.5762 12.2348 13.5032 12.2399L11.2849 12.3949L10.2645 11.0636L11.1505 8.33809ZM10.7548 12.8729L9.59596 11.3611H6.88053L5.69346 12.9097L6.17844 14.8538C6.84799 15.0911 7.56875 15.2203 8.3197 15.2203C8.98962 15.2203 9.63553 15.1175 10.2425 14.9268L10.7548 12.8729ZM6.32665 10.9148L5.18987 12.3978L2.93616 12.2403C2.92565 12.2395 2.91522 12.2393 2.90488 12.2394C2.38567 11.42 2.04752 10.4746 1.94666 9.45949C1.95087 9.45637 1.95505 9.45314 1.95916 9.44981L3.81213 7.95014C3.82014 7.94365 3.82782 7.93687 3.83515 7.92981L5.48793 8.33494L6.32665 10.9148Z" fill="#1FCD93"/>
</svg>
