<svg width="16" height="16" viewBox="0 0 16 16" fill="none" xmlns="http://www.w3.org/2000/svg">
<g clip-path="url(#clip0_1622_9828)">
<path d="M10.5586 11.2132L11.2902 10.0259L12.6106 9.57563L12.7569 8.18884L13.7503 7.21088L13.278 5.89819L13.7503 4.58547L12.7569 3.6075L12.6106 2.22075L11.2903 1.77044L10.5586 0.583156L9.17471 0.75025L7.99911 0L6.82352 0.750313L5.43964 0.583219L4.70799 1.77047L3.38761 2.22078L3.24133 3.60753L2.24792 4.5855L2.72024 5.89822L2.24792 7.21094L3.2413 8.18888L3.38758 9.57566L4.70796 10.026L5.43961 11.2132L6.82352 11.0462L7.99911 11.7964L9.17471 11.0462L10.5586 11.2132ZM3.95446 5.89822C3.95446 3.668 5.76889 1.85356 7.99911 1.85356C10.2293 1.85356 12.0438 3.668 12.0438 5.89822C12.0438 8.12844 10.2293 9.94287 7.99911 9.94287C5.76889 9.94287 3.95446 8.12844 3.95446 5.89822Z" fill="#1FCD93"/>
<path d="M8.00012 2.79102C6.28715 2.79102 4.89355 4.18461 4.89355 5.89758C4.89355 7.61055 6.28715 9.00414 8.00012 9.00414C9.71309 9.00414 11.1067 7.61055 11.1067 5.89758C11.1067 4.18461 9.71309 2.79102 8.00012 2.79102Z" fill="#1FCD93"/>
<path d="M6.60238 12.0167L4.95613 12.2154L4.08635 10.8039L3.79066 10.7031L2.51526 14.6896L4.81135 14.5633L6.60776 15.9989L7.66488 12.6948L6.60238 12.0167Z" fill="#1FCD93"/>
<path d="M11.9128 10.804L11.0429 12.2154L9.39673 12.0167L8.33423 12.6948L9.39135 15.9989L11.1878 14.5633L13.4839 14.6896L12.2084 10.7031L11.9128 10.804Z" fill="#1FCD93"/>
</g>
<defs>
<clipPath id="clip0_1622_9828">
<rect width="16" height="16" fill="white"/>
</clipPath>
</defs>
</svg>
