<svg width="16" height="16" viewBox="0 0 16 16" fill="none" xmlns="http://www.w3.org/2000/svg">
<path d="M9.21356 14.6673H6.7869C6.47364 14.6673 6.2026 14.4493 6.13556 14.1433L5.86423 12.8873C5.50226 12.7287 5.15905 12.5304 4.8409 12.296L3.61623 12.686C3.31756 12.7812 2.99289 12.6555 2.83623 12.384L1.62023 10.2833C1.46529 10.0117 1.51867 9.66898 1.7489 9.45732L2.6989 8.59065C2.6557 8.19806 2.6557 7.80191 2.6989 7.40932L1.7489 6.54465C1.51833 6.3329 1.46493 5.9898 1.62023 5.71798L2.83356 3.61598C2.99022 3.34445 3.3149 3.21874 3.61356 3.31398L4.83823 3.70398C5.00094 3.58342 5.17032 3.47213 5.34556 3.37065C5.51379 3.27578 5.68692 3.18988 5.86423 3.11332L6.13623 1.85865C6.20294 1.55263 6.47369 1.33431 6.7869 1.33398H9.21356C9.52677 1.33431 9.79752 1.55263 9.86423 1.85865L10.1389 3.11398C10.3261 3.19633 10.5084 3.28937 10.6849 3.39265C10.8497 3.48784 11.0091 3.59222 11.1622 3.70532L12.3876 3.31532C12.686 3.22043 13.0103 3.34609 13.1669 3.61732L14.3802 5.71932C14.5352 5.99097 14.4818 6.33366 14.2516 6.54532L13.3016 7.41198C13.3448 7.80458 13.3448 8.20073 13.3016 8.59332L14.2516 9.45998C14.4818 9.67164 14.5352 10.0143 14.3802 10.286L13.1669 12.388C13.0103 12.6592 12.686 12.7849 12.3876 12.69L11.1622 12.3C11.0072 12.4142 10.8461 12.5199 10.6796 12.6167C10.5048 12.7179 10.3245 12.8094 10.1396 12.8907L9.86423 14.1433C9.79725 14.4491 9.52657 14.6671 9.21356 14.6673ZM7.99756 5.33398C6.5248 5.33398 5.3309 6.52789 5.3309 8.00065C5.3309 9.47341 6.5248 10.6673 7.99756 10.6673C9.47032 10.6673 10.6642 9.47341 10.6642 8.00065C10.6642 6.52789 9.47032 5.33398 7.99756 5.33398Z" fill="#1FCD93"/>
</svg>
