<svg width="16" height="16" viewBox="0 0 16 16" fill="none" xmlns="http://www.w3.org/2000/svg">
<g clip-path="url(#clip0_1622_9803)">
<path d="M8.00112 0C5.71539 0 3.84692 1.86847 3.84692 4.1542C3.84692 6.43993 5.71539 8.3084 8.00112 8.3084C10.2868 8.3084 12.1553 6.43993 12.1553 4.1542C12.1553 1.86847 10.2868 0 8.00112 0Z" fill="#1FCD93"/>
<path d="M15.1311 11.628C15.0222 11.3559 14.8771 11.1019 14.7138 10.8661C13.8793 9.63254 12.5914 8.81621 11.1401 8.61667C10.9588 8.59854 10.7592 8.63479 10.6141 8.74365C9.85216 9.30601 8.94515 9.59625 8.00181 9.59625C7.05848 9.59625 6.15147 9.30601 5.38956 8.74365C5.24442 8.63479 5.04487 8.58038 4.86348 8.61667C3.41223 8.81621 2.10612 9.63254 1.2898 10.8661C1.12654 11.1019 0.981398 11.3741 0.872578 11.628C0.818169 11.7369 0.836294 11.8639 0.890703 11.9727C1.03584 12.2267 1.21723 12.4807 1.3805 12.6983C1.63445 13.043 1.90657 13.3514 2.21497 13.6416C2.46893 13.8956 2.75918 14.1314 3.04945 14.3673C4.48254 15.4376 6.20591 15.9999 7.98369 15.9999C9.76147 15.9999 11.4848 15.4375 12.9179 14.3673C13.2082 14.1496 13.4984 13.8956 13.7524 13.6416C14.0426 13.3514 14.3329 13.043 14.5869 12.6983C14.7683 12.4625 14.9316 12.2267 15.0767 11.9727C15.1673 11.8639 15.1855 11.7368 15.1311 11.628Z" fill="#1FCD93"/>
</g>
<defs>
<clipPath id="clip0_1622_9803">
<rect width="16" height="16" fill="white"/>
</clipPath>
</defs>
</svg>
