<svg width="32" height="32" viewBox="0 0 32 32" fill="none" xmlns="http://www.w3.org/2000/svg">
<g opacity="0.8">
<path fill-rule="evenodd" clip-rule="evenodd" d="M9.85382 16.6528H15.4506V28.8122C12.0502 28.6645 8.9936 27.1921 6.78418 24.8983C8.81905 22.5213 9.83773 19.5874 9.85382 16.6528ZM15.4498 3.21191V15.3713H9.79623C9.53238 12.5754 8.35302 9.85318 6.27002 7.69139C8.50631 5.07593 11.7776 3.37147 15.4498 3.21191ZM22.236 15.3713H16.7319V3.21924C20.3434 3.41793 23.5563 5.11145 25.7622 7.69135C23.6795 9.85283 22.4999 12.5751 22.236 15.3713ZM16.7319 28.8049V16.6528H22.1792C22.1952 19.587 23.2136 22.5209 25.2488 24.8983C23.0718 27.1584 20.0723 28.6211 16.7319 28.8049Z" fill="#7C7C7C" fill-opacity="0.5"/>
<path fill-rule="evenodd" clip-rule="evenodd" d="M3.21594 16.6529C3.3507 19.3889 4.34392 21.8992 5.93195 23.9203C7.67973 21.8099 8.55583 19.232 8.57155 16.6529H3.21594ZM8.50841 15.3717C8.25499 12.9571 7.24172 10.61 5.47802 8.71875C4.15567 10.6247 3.33736 12.9066 3.21594 15.3717H8.50841ZM28.8159 15.3717C28.6944 12.9066 27.8761 10.6247 26.5538 8.71875C24.7903 10.6097 23.7769 12.9569 23.5234 15.3717H28.8159ZM28.8159 16.6529H23.4602C23.4759 19.2317 24.3518 21.8096 26.0999 23.9203C27.6879 21.8992 28.6811 19.3889 28.8159 16.6529Z" fill="#929292" fill-opacity="0.5"/>
</g>
</svg>
