<svg width="6" height="32" viewBox="0 0 6 32" fill="none" xmlns="http://www.w3.org/2000/svg">
<g opacity="0.2">
<path d="M0.233086 21.827L-14.2204 21.7598C-15.2808 21.7598 -16.0745 23.1078 -15.9566 22.8589C-16.9466 22.5448 -17.778 21.8416 -18.2459 20.8822L-20.4904 16.2803C-20.7262 15.7968 -20.8513 15.2879 -20.8755 14.7826C-20.899 14.2919 -20.8274 13.8046 -20.6698 13.3468C-20.3499 12.4176 -19.6754 11.6105 -18.7224 11.1456C-17.8877 10.7385 -16.9778 10.6615 -16.1404 10.8635C-16.1404 10.8635 -15.3883 11.0712 -14.8604 11.434C-14.3326 11.7968 -13.8885 12.2969 -13.5876 12.9136L-11.6237 16.9402C-11.4688 17.2579 -11.0856 17.3899 -10.768 17.2349C-10.4503 17.08 -10.3183 16.6968 -10.4733 16.3791L-12.4372 12.3525C-12.8287 11.5497 -13.4137 10.8752 -14.1353 10.3792C-14.3026 10.2642 -14.4835 10.1599 -14.677 10.0635C-15.0991 9.85312 -15.5041 9.7113 -15.7998 9.62966C-15.9132 9.60224 -16.0268 9.57857 -16.1404 9.55864V8.31984C-16.1404 5.84561 -14.1347 3.83984 -11.6604 3.83984H-2.31988C0.154352 3.83984 2.16012 5.84561 2.16012 8.31984V18.5598C2.16012 19.8483 1.61618 21.0097 0.745413 21.827H0.233086Z" fill="#7C7C7C" fill-opacity="0.5"/>
<path fill-rule="evenodd" clip-rule="evenodd" d="M-14.2204 23.04C-14.5738 23.04 -14.8604 23.3266 -14.8604 23.68V27.52C-14.8604 27.8735 -14.5738 28.16 -14.2204 28.16H0.240202C0.593664 28.16 0.880202 27.8735 0.880202 27.52V23.68C0.880202 23.3266 0.593664 23.04 0.240202 23.04H-14.2204Z" fill="#929292" fill-opacity="0.5"/>
</g>
</svg>
