<svg width="12" height="14" viewBox="0 0 12 14" fill="none" xmlns="http://www.w3.org/2000/svg">
<path d="M10.6667 13.6663H1.33333C0.596954 13.6663 0 13.0694 0 12.333V2.99967C0 2.26329 0.596954 1.66634 1.33333 1.66634H2.66667V0.333008H4V1.66634H8V0.333008H9.33333V1.66634H10.6667C11.403 1.66634 12 2.26329 12 2.99967V12.333C12 13.0694 11.403 13.6663 10.6667 13.6663ZM1.33333 5.66634V12.333H10.6667V5.66634H1.33333ZM1.33333 2.99967V4.33301H10.6667V2.99967H1.33333ZM6.66667 10.9997H5.33333V9.66634H4V8.33301H5.33333V6.99967H6.66667V8.33301H8V9.66634H6.66667V10.9997Z" fill="#1FCD93"/>
</svg>
