<svg width="26" height="27" viewBox="0 0 26 27" fill="none" xmlns="http://www.w3.org/2000/svg">
<path fill-rule="evenodd" clip-rule="evenodd" d="M15.5599 18.3228V21.3198H18.1199C18.8269 21.3198 19.3999 21.8929 19.3999 22.5998V25.1598C19.3999 25.8668 18.8269 26.4398 18.1199 26.4398H7.87995C7.17302 26.4398 6.59995 25.8668 6.59995 25.1598V22.5998C6.59995 21.8929 7.17302 21.3198 7.87995 21.3198H10.4399V18.3228C7.45705 17.2685 5.31995 14.4238 5.31995 11.0798V0.839844H20.6799V11.0798C20.6799 14.4238 18.5428 17.2685 15.5599 18.3228Z" fill="#7C7C7C" fill-opacity="0.5"/>
<path fill-rule="evenodd" clip-rule="evenodd" d="M21.96 2.12988V4.04988H23.8861V6.92988C23.8861 8.40524 23.118 9.70122 21.96 10.4398V12.5864C24.2125 11.696 25.8061 9.49905 25.8061 6.92988V3.08988C25.8061 2.55969 25.3763 2.12988 24.8461 2.12988H21.96ZM2.11995 4.04994H4.04605V2.12994H1.15995C0.629758 2.12994 0.199951 2.55974 0.199951 3.08994V6.92994C0.199951 9.4991 1.79347 11.6961 4.04605 12.5864V10.4399C2.88798 9.70128 2.11995 8.4053 2.11995 6.92994V4.04994Z" fill="#929292" fill-opacity="0.5"/>
</svg>
