<svg width="36" height="35" viewBox="0 0 36 35" fill="none" xmlns="http://www.w3.org/2000/svg">
<path fill-rule="evenodd" clip-rule="evenodd" d="M16.9069 4.50672L12.0002 0.943777C11.8133 0.808084 11.6886 0.618662 11.6319 0.412109C8.21747 1.70714 5.31062 4.03267 3.2915 7.0087C3.34873 7.08254 3.39625 7.16588 3.43146 7.25756L5.39885 12.3799L10.462 13.621L16.9069 8.94116V4.50672ZM18.864 4.49881V8.94906L25.3073 13.6278L30.3573 12.3899L32.3286 7.25756C32.3638 7.16588 32.4113 7.08254 32.4685 7.0087C30.4494 4.03267 27.5425 1.70714 24.1281 0.412109C24.0714 0.618662 23.9467 0.808084 23.7598 0.943777L18.864 4.49881ZM25.6648 15.5541L30.2207 14.4373C30.2386 14.4542 30.2572 14.4704 30.2765 14.4861L35.3721 18.6101C35.3835 18.6193 35.3949 18.6282 35.4065 18.6367C35.1239 21.4818 34.1634 24.1276 32.6889 26.4106C32.5265 26.3174 32.3355 26.2699 32.1347 26.2839L26.0345 26.7102L23.2281 23.0493L25.6648 15.5541ZM24.5767 28.0246L21.3897 23.8672H13.9223L10.6578 28.1257L11.9916 33.4719C13.8328 34.1245 15.8149 34.4797 17.88 34.4797C19.7223 34.4797 21.4985 34.1971 23.1676 33.6727L24.5767 28.0246ZM12.3985 22.6389L9.27234 26.7171L3.07466 26.2839C3.04576 26.2819 3.01707 26.2812 2.98864 26.2816C1.5608 24.0282 0.630886 21.4284 0.353516 18.6368C0.365119 18.6282 0.376588 18.6193 0.387915 18.6101L5.48356 14.4861C5.50561 14.4682 5.52672 14.4496 5.54687 14.4302L10.092 15.5443L12.3985 22.6389Z" fill="#7C7C7C"/>
</svg>
