<svg width="36" height="36" viewBox="0 0 36 36" fill="none" xmlns="http://www.w3.org/2000/svg">
<circle cx="18" cy="18" r="18" fill="#1FCD93"/>
<path fill-rule="evenodd" clip-rule="evenodd" d="M20.1336 5.03591C18.819 6.48984 18.6878 6.63048 18.669 6.60604C18.6598 6.59427 18.3154 6.04225 17.9037 5.37941C17.4918 4.71657 17.1246 4.14107 17.0875 4.10048C17.0338 4.04174 16.9852 4.12722 16.8488 4.52089C16.7546 4.79269 16.531 5.43844 16.352 5.95587C16.1287 6.60117 16.0041 6.88811 15.9554 6.86938C15.9162 6.85442 15.261 6.41047 14.4993 5.88283C13.7377 5.3552 13.1054 4.93244 13.0944 4.94342C13.0729 4.96484 13.4471 7.43531 13.489 7.54971C13.5345 7.67342 13.4237 7.67723 13.3158 7.55571C13.0986 7.31098 11.6153 6.38838 11.439 6.38838C11.4056 6.38838 11.4707 6.50817 11.5836 6.65464C11.8173 6.95767 12.4907 8.30885 12.6802 8.85476C12.7497 9.05516 12.8245 9.23974 12.8463 9.26491C12.8681 9.29013 13.1738 9.17365 13.5256 9.00616C15.0662 8.27258 16.3851 7.91928 18.1021 7.78004C19.348 7.67903 20.4905 7.78536 22.1736 8.15908C22.3138 8.19024 22.3144 8.18884 22.4104 7.49954C22.5166 6.73816 22.6979 6.00122 22.9217 5.42145C23.0021 5.21332 23.0528 5.04309 23.0345 5.04309C22.9526 5.04309 22.114 5.84567 21.7288 6.29264C21.4953 6.56372 21.2987 6.76552 21.2922 6.74108C21.2855 6.71664 21.2393 6.0918 21.1894 5.35251C21.1396 4.61321 21.0941 4.00457 21.0883 4.00003C21.0825 3.99544 20.6529 4.46158 20.1336 5.03591ZM18.0149 8.50089C16.7222 8.59775 15.0824 9.03419 13.8336 9.61373L13.502 9.76766L13.8209 9.86609C14.29 10.0109 14.6799 10.3316 14.9626 10.8052C15.131 11.0874 15.1051 11.1525 14.8851 10.9993C14.4039 10.6641 13.5923 10.5734 13.1452 10.8048C12.8472 10.9589 12.5914 11.2688 12.4659 11.6276C12.2724 12.1811 12.3658 13.1033 12.6812 13.7552C12.7398 13.8762 12.7767 13.9861 12.7632 13.9996C12.724 14.0386 12.4235 13.8066 12.2329 13.5901C11.6739 12.955 11.4783 11.784 11.8022 11.0108C11.847 10.904 11.8637 10.8167 11.8394 10.8167C11.7492 10.8167 10.718 11.717 10.2818 12.1767C10.0333 12.4386 9.65471 12.8761 9.44059 13.1491C9.05974 13.6346 8.18017 15.0398 8.18017 15.1629C8.18017 15.1987 8.40244 15.2554 8.70647 15.2971C8.99595 15.3367 9.26559 15.3893 9.30566 15.414C9.35995 15.4475 9.30589 15.5568 9.09379 15.8424C8.4728 16.6787 7.86096 17.899 7.45397 19.1131C7.20321 19.8613 7 20.7812 7 21.1684C7 21.3805 7.01489 21.4139 7.09835 21.3884C7.15241 21.372 7.56761 21.2442 8.0209 21.1044C8.4742 20.9647 8.8831 20.8503 8.92958 20.8503C8.99747 20.8503 9.00449 20.8862 8.96543 21.0325C8.80364 21.638 8.74396 23.7063 8.85562 24.8382C8.93689 25.6624 9.11262 26.5491 9.31308 27.1468C9.50753 27.7264 9.72901 28.1934 9.80943 28.1934C9.89479 28.1934 10.5833 27.5804 11.0752 27.0664C11.6363 26.4802 12.3165 25.6426 12.812 24.9278C13.0205 24.627 13.2123 24.3939 13.2381 24.4098C13.3082 24.453 13.5165 25.3864 13.6064 26.0602C13.7564 27.1837 13.6885 28.5537 13.4035 30.1553C13.3404 30.5098 13.2759 30.8516 13.2601 30.9148C13.2356 31.0134 13.3096 31.0667 13.7827 31.2912C14.4272 31.5971 15.1229 31.8065 15.9055 31.9304C16.6735 32.0519 18.0452 32.0097 18.8579 31.8396C20.0244 31.5953 21.2933 31.0915 22.1757 30.5222C22.3979 30.3788 22.5906 30.2722 22.6038 30.2854C22.617 30.2986 22.7136 30.6304 22.8185 31.0227C22.9233 31.4149 23.0231 31.7499 23.0402 31.767C23.0971 31.8238 24.1585 30.9755 24.6731 30.4618C26.101 29.0365 27.0373 27.1761 27.2966 25.2492C27.3454 24.8864 27.3867 24.7372 27.4311 24.7638C27.4663 24.7849 27.6796 25.0117 27.9052 25.2678C28.1307 25.5239 28.3355 25.7131 28.3601 25.6882C28.4269 25.6208 28.7833 24.2118 28.8962 23.5689C29.0195 22.8668 29.0372 20.9349 28.9264 20.2618C28.7331 19.087 28.3501 17.9114 27.7942 16.7864C27.4062 16.0014 26.6773 14.7897 26.572 14.7547C26.5412 14.7445 26.5029 14.8518 26.487 14.9933C26.471 15.1347 26.4403 15.268 26.4189 15.2893C26.3809 15.3272 25.5515 14.4725 25.5475 14.3914C25.5464 14.369 25.6088 14.3093 25.686 14.2588C25.7906 14.1905 25.8265 14.118 25.8265 13.975C25.8265 13.7603 25.6705 13.4184 25.5041 13.2682C25.4018 13.176 25.3798 13.1754 25.175 13.2593C25.0543 13.3088 24.8762 13.4247 24.7794 13.5169L24.6033 13.6847L24.3238 13.4843C24.086 13.3139 23.7025 13.1149 23.612 13.1149C23.5794 13.1149 24.2722 14.1753 24.381 14.292C24.424 14.3382 24.6342 14.5197 24.8479 14.6952C25.336 15.0961 25.9479 15.7226 25.7984 15.6684C25.132 15.4267 23.8628 15.4128 23.2175 15.64L22.862 15.7652L22.6449 15.5191C22.5255 15.3837 22.1431 14.9796 21.795 14.6211C21.4453 14.2609 21.1622 13.9223 21.1624 13.8644C21.163 13.6717 21.2746 13.3544 21.414 13.1495L21.5521 12.9467H21.411C21.2655 12.9467 20.908 13.1074 20.6495 13.289L20.5022 13.3924L20.0594 13.1405C19.8159 13.0019 19.4145 12.8107 19.1675 12.7155C18.7454 12.5529 18.7007 12.5465 18.422 12.6087C17.9427 12.7157 16.8348 13.3384 16.8348 13.5009C16.8348 13.5618 17.5731 13.9582 17.8743 14.0589C17.998 14.1004 18.5225 14.1538 19.0398 14.1777L19.9804 14.2212L20.2321 14.4269C20.6944 14.8048 21.8207 15.952 21.7746 15.998C21.7598 16.0127 21.6349 15.9835 21.4971 15.9332C21.2958 15.8596 20.9082 15.8341 19.5323 15.8038C17.5639 15.7603 17.4786 15.7443 16.8407 15.2975C16.3458 14.9509 16.0398 14.5173 15.9428 14.0254L15.8776 13.6953L15.4468 13.6284C15.2099 13.5917 15.0016 13.5468 14.984 13.5287C14.9665 13.5106 15.1377 13.3219 15.3645 13.1093C15.6449 12.8468 15.928 12.6483 16.2481 12.4901L16.7192 12.2574L16.4654 12.0346C16.2206 11.8196 16.2151 11.808 16.3101 11.7033C16.6333 11.3472 17.883 10.7434 18.7769 10.5118C19.7411 10.2618 19.7721 10.2628 20.3491 10.5637C20.6262 10.7083 21.1724 11.0387 21.5628 11.298C21.9532 11.5574 22.2855 11.7696 22.3013 11.7696C22.3539 11.7696 22.4997 11.3488 22.5692 10.9965C22.607 10.8051 22.6662 10.6485 22.7008 10.6486C23.0067 10.6492 25.0069 12.0192 25.5987 12.6336C25.7053 12.7441 25.8104 12.8346 25.8324 12.8346C25.8544 12.8346 25.7843 12.6265 25.6767 12.3722C25.447 11.8293 25.2084 11.0375 25.2084 10.8179C25.2084 10.2899 23.6343 9.33655 21.9629 8.8523C21.7697 8.79635 21.6116 8.77085 21.6116 8.79563C21.6116 8.8204 21.6481 8.94378 21.6927 9.06984C21.779 9.31379 21.9045 9.92668 21.8743 9.95678C21.8644 9.96665 21.6296 9.75432 21.3526 9.48481C20.6835 8.83391 20.2857 8.56564 19.9103 8.51233C19.6197 8.47102 18.5037 8.46429 18.0149 8.50089ZM23.1181 16.9577C23.2812 17.0673 23.616 17.2571 23.862 17.3795L24.3092 17.6021V18.3561V19.1102L23.9298 19.425C22.8539 20.3182 21.627 20.9624 21.0022 20.9624C20.7778 20.9624 20.7778 20.9624 20.5119 20.472C19.3868 18.3959 19.4386 18.5086 19.5637 18.4103C19.9108 18.1373 21.0381 17.4224 21.412 17.2381C21.8385 17.0279 22.5656 16.7659 22.7363 16.7609C22.7832 16.7595 22.9549 16.8481 23.1181 16.9577ZM26.4298 17.1259C26.7206 17.9454 26.8419 18.9599 26.7324 19.6579C26.6679 20.0695 26.4679 20.6826 26.3985 20.6817C26.3776 20.6814 26.255 20.5108 26.1262 20.3024C25.9973 20.0941 25.7381 19.7562 25.5502 19.5516L25.2084 19.1795V18.3887V17.5978L25.5034 17.4075C25.6657 17.3029 25.8996 17.14 26.0232 17.0455C26.1469 16.9511 26.2712 16.8808 26.2997 16.8893C26.3281 16.8978 26.3866 17.0043 26.4298 17.1259ZM25.1873 20.7811C25.2997 20.8544 25.5851 21.3469 25.7136 21.6896L25.8387 22.0234L25.7148 22.4304C25.562 22.9323 25.3808 23.2974 25.0623 23.7455C24.8566 24.035 24.4431 24.4378 24.3517 24.4378C24.3376 24.4378 24.3099 24.2119 24.2903 23.9358C24.2585 23.489 24.1849 23.0293 24.1125 22.8255C24.0956 22.778 23.9989 22.8225 23.8189 22.9606C23.533 23.18 22.787 23.5499 22.4444 23.6422L22.2374 23.6979L21.8366 22.9691C21.6161 22.5682 21.451 22.2251 21.4696 22.2064C21.4883 22.1879 21.5721 22.165 21.6559 22.1554C21.9229 22.1252 22.9137 21.6001 23.4707 21.1937C23.9551 20.8402 24.0396 20.7987 24.3137 20.7799C24.8964 20.7398 25.1245 20.7402 25.1873 20.7811Z" fill="#252526"/>
</svg>
