<svg width="32" height="32" viewBox="0 0 32 32" fill="none" xmlns="http://www.w3.org/2000/svg">
<g opacity="0.4">
<path fill-rule="evenodd" clip-rule="evenodd" d="M29.3019 12.0146C28.8076 16.1199 26.9922 20.9916 23.9482 24.0477C21.0694 26.9379 16.4848 28.6716 12.4934 29.2359L12.1056 28.8481L4.04602 20.7704C4.6127 16.7621 6.34639 12.1531 9.22342 9.26472C12.2987 6.17725 17.1528 4.40325 21.2591 3.9541L29.1197 11.8325L29.3019 12.0146ZM20.2506 12.0356L19.3389 12.9509L18.4272 12.0356C18.1731 11.7805 17.761 11.7805 17.5069 12.0356C17.2528 12.2907 17.2528 12.7044 17.5069 12.9595L18.4186 13.8748L16.578 15.7227L15.6663 14.8074C15.4122 14.5523 15.0001 14.5523 14.746 14.8074C14.4919 15.0625 14.4919 15.4762 14.746 15.7313L15.6577 16.6466L13.8171 18.4945L12.9054 17.5792C12.6513 17.3241 12.2392 17.3241 11.9851 17.5792C11.731 17.8343 11.731 18.248 11.9851 18.5031L12.8968 19.4184L11.9851 20.3337C11.731 20.5889 11.731 21.0025 11.9851 21.2577C12.2392 21.5128 12.6513 21.5128 12.9054 21.2577L13.8171 20.3424L14.7288 21.2577C14.9829 21.5128 15.3949 21.5128 15.6491 21.2577C15.9032 21.0025 15.9032 20.5889 15.6491 20.3337L14.7374 19.4184L16.578 17.5706L17.4897 18.4858C17.7438 18.741 18.1558 18.741 18.41 18.4858C18.6641 18.2307 18.6641 17.8171 18.41 17.5619L17.4983 16.6466L19.3389 14.7988L20.2506 15.714C20.5047 15.9692 20.9167 15.9692 21.1709 15.714C21.425 15.4589 21.425 15.0452 21.1709 14.7901L20.2592 13.8748L21.1709 12.9595C21.425 12.7044 21.425 12.2907 21.1709 12.0356C20.9167 11.7805 20.5047 11.7805 20.2506 12.0356Z" fill="#7C7C7C" fill-opacity="0.5"/>
<path fill-rule="evenodd" clip-rule="evenodd" d="M10.8525 29.4047C8.24 29.5675 6.06529 29.1705 5.08779 28.2096C4.11102 27.2494 3.70997 25.0558 3.87664 22.4131L10.8525 29.4047Z" fill="#929292" fill-opacity="0.5"/>
<path fill-rule="evenodd" clip-rule="evenodd" d="M22.9564 3.84282C25.2035 3.80039 27.0722 4.21149 28.0575 5.07839C29.057 5.95779 29.5075 7.9225 29.4319 10.3329L22.9564 3.84282Z" fill="#929292" fill-opacity="0.5"/>
</g>
</svg>
