<svg width="32" height="32" viewBox="0 0 32 32" fill="none" xmlns="http://www.w3.org/2000/svg">
<g opacity="0.4">
<path fill-rule="evenodd" clip-rule="evenodd" d="M16.64 3.83984C22.3088 3.83984 27.1169 7.52495 28.7994 12.6303L28.6768 12.679C22.3931 15.1775 19.1375 22.1541 21.2597 28.5808C19.8267 29.1356 18.2689 29.4398 16.64 29.4398C10.9204 29.4398 6.07696 25.6884 4.43605 20.5119L4.58698 20.4599C11.1732 18.1921 14.7192 11.0863 12.6197 4.48394C13.884 4.06602 15.2356 3.83984 16.64 3.83984Z" fill="#7C7C7C" fill-opacity="0.5"/>
<path fill-rule="evenodd" clip-rule="evenodd" d="M4.12012 19.3161C3.93655 18.453 3.83997 17.5578 3.83997 16.6401C3.83997 11.4069 6.98049 6.90718 11.4797 4.92285C13.3302 10.8771 10.0678 17.276 4.132 19.3199L4.12012 19.3161Z" fill="#929292" fill-opacity="0.5"/>
<path fill-rule="evenodd" clip-rule="evenodd" d="M29.1266 13.8125C29.3317 14.7222 29.44 15.6686 29.44 16.6403C29.44 21.6456 26.567 25.98 22.3801 28.0842C20.5364 22.3019 23.4803 16.0579 29.1266 13.8125V13.8125Z" fill="#929292" fill-opacity="0.5"/>
</g>
</svg>
