<svg width="5" height="32" viewBox="0 0 5 32" fill="none" xmlns="http://www.w3.org/2000/svg">
<g opacity="0.2">
<path fill-rule="evenodd" clip-rule="evenodd" d="M12.6765 14.9571C13.8449 16.1585 15.0232 16.8614 15.9617 17.2079C15.9847 17.7573 15.9285 18.4369 15.7435 19.2055C15.5049 20.1974 15.0819 21.189 14.4398 22.1566C14.4213 22.1533 14.4025 22.1508 14.3835 22.1489C14.1131 22.1229 13.5967 22.011 12.9171 21.7547C11.7644 21.3201 10.6079 20.6242 9.52457 19.6073C8.95217 19.07 8.41481 18.4548 7.91879 17.7562C6.4489 15.6859 5.57575 13.3391 5.29731 10.7041C6.22859 8.92845 7.56452 7.39835 9.1826 6.23633C9.24425 8.36196 9.75544 10.3561 10.7159 12.2111C11.2674 13.2762 11.9286 14.1881 12.6765 14.9571ZM12.4152 23.0857C12.8068 23.2334 13.1589 23.3419 13.4621 23.4188C12.1787 24.8618 10.6046 25.9572 8.73192 26.7086C5.75296 24.3646 3.83997 20.7267 3.83997 16.6419C3.83997 15.4603 4.00006 14.316 4.29975 13.2296C4.78374 15.1678 5.60372 16.9526 6.75894 18.5797C7.31001 19.3559 7.90985 20.0426 8.55107 20.6445C9.77663 21.7949 11.094 22.5875 12.4152 23.0857Z" fill="#929292" fill-opacity="0.5"/>
</g>
</svg>
